<?xml version="1.0" encoding="utf-8"?>
<!-- Generator: Adobe Illustrator 28.1.0, SVG Export Plug-In . SVG Version: 6.00 Build 0)  -->
<svg version="1.1" id="Layer_1" xmlns="http://www.w3.org/2000/svg" xmlns:xlink="http://www.w3.org/1999/xlink" x="0px" y="0px"
	 viewBox="0 0 128 128" style="enable-background:new 0 0 128 128;" xml:space="preserve">
<path id="icon" fill="#EDA01B" d="M99.8,128c-4.5,0-8.1-0.8-11.8-2.5c-3.4-1.6-6.8-4-10.8-7.2c-3-2.8-7.2-6.7-9.9-9.7
	c-1.5-1.7-4.6-4.9-4.5-4.9c-0.5-0.5-1-0.9-1.4-1.3L61,102l-0.2-0.2l0,0c-5-4.7-9.7-9.1-14.3-13.7c-4.7-4.7-9.1-9.6-13.2-14.7
	c-3.7,3.8-5.3,8.4-5.2,14.4c0.3,10,7.5,20,22.9,20c2,0,5.3-0.9,8.3-2.2l14.5,14.1c-3.3,2.1-6.8,3.9-10.4,5.2c-2.7,1-5.5,1.7-8.4,2.2
	c-3.2,0.6-6.5,0.8-9.7,0.8c-3.7,0-7.4-0.3-11-0.9c-3.1-0.5-6.2-1.4-9.1-2.6c-4.9-1.9-9.4-4.9-13-8.8c-1.6-1.7-3-3.6-4.2-5.6
	c-1.1-1.9-2.1-3.9-2.9-5.9c-1.4-3.7-2.1-7.6-2.2-11.5c0-1.9,0.1-3.8,0.4-5.7c0.3-1.7,0.8-3.5,1.4-5.1c0.6-1.6,1.3-3.1,2.1-4.6
	c0.8-1.4,1.8-2.8,2.8-4.1c2.1-2.6,4.4-4.9,7-7c2.5-2,5.1-3.9,7.9-5.6c-1.6-2.7-2.9-5.5-3.9-8.4c-1-3.2-1.5-6.5-1.5-9.9
	c0-2.2,0.2-4.4,0.5-6.6c0.3-2.2,0.9-4.3,1.8-6.3c0.9-2,2.1-3.9,3.5-5.5c1.6-1.8,3.6-3.3,5.7-4.4c3.7,0.9,10.2,2.7,11.4,4.9
	c0.2,0.3,0.2,0.6,0,1c-0.3,0.7-1.2,1.6-2.8,2.6c-1.6,1-3.2,1.8-4.9,2.6c-3.1,1.4-6.1,2.5-6.7,2.7l0,0l0,0l0,0
	c0.5-0.1,2.9-0.5,5.9-0.9c3-0.4,7.3-0.9,10.2-0.9c1.7,0,2.9,0.2,3.4,0.5c0.4,0.2,0.6,0.6,0.6,1.1c0,0.6-0.2,1.2-0.6,1.7
	c-0.4,0.6-0.8,1.2-1.3,1.7c-0.6,0.6-1.3,1.2-1.9,1.8l0,0h0.2c-0.8,0.9-1.1,2.3-1.1,4.3c0,3.2,1.1,6.1,3.7,9.7
	c2.5,3.6,6.4,7.9,12.6,14.6c7.1,7.8,21.4,21.7,23.1,23.3l0,0c0.2-0.1,4.2-3,15.1-12.3c4.9-4.6,9.1-9,11.8-11.8
	c2.7-2.9,4.5-5,4.6-5.2l0,0c0,0,0,0,0,0l0,0c-0.3,0.7-3.1,7.4-6.7,15c-2.3,4.7-4.5,9-6.6,12.6c-2.6,4.5-5,8-7.1,10.4
	c14,12.4,25.5,21,31.4,23.8c-0.4,0.5-1.3,1.1-2.5,1.6c-1.6,0.7-3.3,1.3-5.1,1.8c-3.4,0.9-9.2,2-17.2,2C100.2,128,100,128,99.8,128z
	 M73.3,54L73.3,54c-1.6-1.6-3.2-3.8-4.9-6.2l0,0l0,0l0,0c-1.9-2.7-3.9-5.5-6.2-7.7c-2.6-2.5-5.1-3.7-7.8-3.7c-0.7,0-1.4,0-1.9,0h0
	h-0.1c-0.5,0-1,0-1.5,0c-1.1,0-2.1,0-3.2,0.1c0.7-0.9,1.3-1.9,1.7-2.9c0.5-1.2,0.5-2.1,0-2.8c-0.5-0.7-2-1.1-4.4-1.1
	c-2.3,0-4.6,0.3-6.9,0.7h0l0,0h0c1.1-0.5,2.2-1,3.3-1.6c0.9-0.5,1.7-1,2.4-1.6c0.8-0.6,1.3-1.2,1.5-1.8c0.1-0.4,0.1-0.8-0.1-1.1
	c-0.3-0.6-1.1-1.3-2.3-2c-1.2-0.7-2.4-1.3-3.6-1.8c-0.9-0.4-2-0.8-3.1-1.2c-2-0.4-5.8-1.2-8.6-2.3c-1.5-0.6-2.9-1.3-4.2-2.3
	c-0.5-0.3-1-0.7-1.4-1.2c0.6,0.3,1.3,0.6,2,0.8c2.2,0.6,4.4,1,6.6,1.2c0.8,0.1,1.6,0.1,2.5,0.1c3.6-0.1,7.1-0.4,10.6-1.1
	c-0.9-0.5-1.6-1.1-2.3-1.5c-2.3-1.6-4.5-3.5-6.4-5.5c-0.7-0.8-1.4-1.6-2.1-2.5c0.1,0,6.2,3.4,11.9,5.1c1.9,0.6,3.9,0.9,5.9,0.9
	c1,0,1.9,0.1,2.9,0.3c-0.1-0.2-0.3-0.4-0.4-0.6c-1.6-2.3-3-4.8-4.1-7.4c-0.4-1-0.8-2-1.1-3c0,0.1,4.7,5.3,9.5,8.9
	c1.6,1.2,3.3,2.2,5.2,2.8c1.5,0.6,2.8,1.1,4.7,2.9c1,1,1.8,2.1,2.4,3.3c1-0.7,2.1-1.8,3.4-3.4c1.5,8.9,6,17.5,9.4,23.2
	c2.2,3.6,4.6,7,7.2,10.3l-4.3,3.7h0c0,0-0.2,0-0.4,0c-1.1,0-4.1,0-6.8,0.3c-1.2,0.1-2.4,0.3-3.6,0.6C73.8,53.3,73.3,53.6,73.3,54
	L73.3,54L73.3,54z"/>
</svg>
